<mxfile host="drawio-plugin" modified="2022-03-06T17:13:09.089Z" agent="5.0 (Windows NT 6.2; Win64; x64) AppleWebKit/537.36 (KHTML, like Gecko) Chrome/87.0.4280.141 Safari/537.36" version="15.5.4" etag="lGstmJcJ5kel-DVjd13F" type="embed"><diagram id="XHpSeOB537YpZJKMXbps" name="Page-1"><mxGraphModel dx="1366" dy="1055" grid="1" gridSize="10" guides="1" tooltips="1" connect="1" arrows="1" fold="1" page="1" pageScale="1" pageWidth="850" pageHeight="1100" math="0" shadow="0"><root><mxCell id="0"/><mxCell id="1" parent="0"/><mxCell id="2" value="Drawer" style="shape=folder;html=1;tabWidth=80;tabHeight=40;tabPosition=left;align=left;verticalAlign=top;spacingLeft=10;whiteSpace=wrap;" vertex="1" parent="1"><mxGeometry x="360" y="250" width="160" height="120" as="geometry"/></mxCell><mxCell id="3" value="Guesser" style="shape=folder;html=1;tabWidth=80;tabHeight=40;tabPosition=left;align=left;verticalAlign=top;spacingLeft=10;whiteSpace=wrap;" vertex="1" parent="1"><mxGeometry x="520" y="80" width="160" height="120" as="geometry"/></mxCell><mxCell id="4" value="Server" style="shape=folder;html=1;tabWidth=80;tabHeight=40;tabPosition=left;align=left;verticalAlign=top;spacingLeft=10;whiteSpace=wrap;" vertex="1" parent="1"><mxGeometry x="200" y="80" width="160" height="120" as="geometry"/></mxCell><mxCell id="5" value="World" style="rounded=0;whiteSpace=wrap;html=1;" vertex="1" parent="1"><mxGeometry x="210" y="130" width="50" height="20" as="geometry"/></mxCell><mxCell id="6" style="edgeStyle=orthogonalEdgeStyle;rounded=0;orthogonalLoop=1;jettySize=auto;html=1;entryX=1;entryY=0.5;entryDx=0;entryDy=0;" edge="1" parent="1" source="7" target="5"><mxGeometry relative="1" as="geometry"/></mxCell><mxCell id="7" value="Game Logic" style="rounded=0;whiteSpace=wrap;html=1;" vertex="1" parent="1"><mxGeometry x="280" y="130" width="70" height="20" as="geometry"/></mxCell><mxCell id="8" style="edgeStyle=orthogonalEdgeStyle;rounded=0;orthogonalLoop=1;jettySize=auto;html=1;entryX=0.5;entryY=1;entryDx=0;entryDy=0;exitX=0.358;exitY=-0.003;exitDx=0;exitDy=0;exitPerimeter=0;" edge="1" parent="1" source="9" target="5"><mxGeometry relative="1" as="geometry"/></mxCell><mxCell id="9" value="Parsor" style="rounded=0;whiteSpace=wrap;html=1;" vertex="1" parent="1"><mxGeometry x="210" y="170" width="70" height="20" as="geometry"/></mxCell><mxCell id="10" style="edgeStyle=orthogonalEdgeStyle;rounded=0;orthogonalLoop=1;jettySize=auto;html=1;entryX=0.5;entryY=0;entryDx=0;entryDy=0;" edge="1" parent="1" source="11" target="14"><mxGeometry relative="1" as="geometry"/></mxCell><mxCell id="11" value="Parsor" style="rounded=0;whiteSpace=wrap;html=1;" vertex="1" parent="1"><mxGeometry x="440" y="300" width="70" height="20" as="geometry"/></mxCell><mxCell id="12" style="edgeStyle=orthogonalEdgeStyle;rounded=0;orthogonalLoop=1;jettySize=auto;html=1;entryX=0.5;entryY=1;entryDx=0;entryDy=0;exitX=0.359;exitY=-0.009;exitDx=0;exitDy=0;exitPerimeter=0;" edge="1" parent="1" source="13" target="15"><mxGeometry relative="1" as="geometry"/></mxCell><mxCell id="13" value="Parsor" style="rounded=0;whiteSpace=wrap;html=1;" vertex="1" parent="1"><mxGeometry x="530" y="170" width="70" height="20" as="geometry"/></mxCell><mxCell id="14" value="World" style="rounded=0;whiteSpace=wrap;html=1;" vertex="1" parent="1"><mxGeometry x="450" y="340" width="50" height="20" as="geometry"/></mxCell><mxCell id="15" value="World" style="rounded=0;whiteSpace=wrap;html=1;" vertex="1" parent="1"><mxGeometry x="530" y="130" width="50" height="20" as="geometry"/></mxCell><mxCell id="16" style="edgeStyle=orthogonalEdgeStyle;rounded=0;orthogonalLoop=1;jettySize=auto;html=1;entryX=0;entryY=0.5;entryDx=0;entryDy=0;" edge="1" parent="1" source="17" target="14"><mxGeometry relative="1" as="geometry"/></mxCell><mxCell id="17" value="Drawing" style="rounded=0;whiteSpace=wrap;html=1;" vertex="1" parent="1"><mxGeometry x="370" y="340" width="50" height="20" as="geometry"/></mxCell><mxCell id="18" style="edgeStyle=orthogonalEdgeStyle;rounded=0;orthogonalLoop=1;jettySize=auto;html=1;entryX=1;entryY=0.5;entryDx=0;entryDy=0;" edge="1" parent="1" source="19" target="15"><mxGeometry relative="1" as="geometry"/></mxCell><mxCell id="19" value="Guess" style="rounded=0;whiteSpace=wrap;html=1;" vertex="1" parent="1"><mxGeometry x="610" y="130" width="50" height="20" as="geometry"/></mxCell></root></mxGraphModel></diagram></mxfile>